<svg xmlns="http://www.w3.org/2000/svg" version="1.1" xmlns:xlink="http://www.w3.org/1999/xlink" xmlns:svgjs="http://svgjs.com/svgjs" width="1440" height="560" preserveAspectRatio="none" viewBox="0 0 1440 560"><g mask="url(&quot;#SvgjsMask1016&quot;)" fill="none"><path d="M-78.62 382.44L-78.62 382.44" stroke="rgba(202, 200, 185, 1)" stroke-width="1.5"></path><path d="M-78.62 382.44L-63.41 491.88" stroke="rgba(202, 200, 185, 1)" stroke-width="1.5"></path><path d="M-78.62 382.44L93.53 386.62" stroke="rgba(202, 200, 185, 1)" stroke-width="1.5"></path><path d="M-78.62 382.44L49.13 549.95" stroke="rgba(202, 200, 185, 1)" stroke-width="1.5"></path><path d="M-78.62 382.44L209.76 396.58" stroke="rgba(202, 200, 185, 1)" stroke-width="1.5"></path><path d="M-63.41 491.88L-63.41 491.88" stroke="rgba(202, 200, 185, 1)" stroke-width="1.5"></path><path d="M-63.41 491.88L49.13 549.95" stroke="rgba(202, 200, 185, 1)" stroke-width="1.5"></path><path d="M-63.41 491.88L93.53 386.62" stroke="rgba(202, 200, 185, 1)" stroke-width="1.5"></path><path d="M-63.41 491.88L-48.14 688.1" stroke="rgba(202, 200, 185, 1)" stroke-width="1.5"></path><path d="M-63.41 491.88L51.83 671.01" stroke="rgba(202, 200, 185, 1)" stroke-width="1.5"></path><path d="M-63.41 491.88L209.76 396.58" stroke="rgba(202, 200, 185, 1)" stroke-width="1.5"></path><path d="M-48.14 688.1L-48.14 688.1" stroke="rgba(202, 200, 185, 1)" stroke-width="1.5"></path><path d="M-48.14 688.1L51.83 671.01" stroke="rgba(202, 200, 185, 1)" stroke-width="1.5"></path><path d="M93.53 386.62L93.53 386.62" stroke="rgba(202, 200, 185, 1)" stroke-width="1.5"></path><path d="M93.53 386.62L209.76 396.58" stroke="rgba(202, 200, 185, 1)" stroke-width="1.5"></path><path d="M93.53 386.62L49.13 549.95" stroke="rgba(202, 200, 185, 1)" stroke-width="1.5"></path><path d="M49.13 549.95L49.13 549.95" stroke="rgba(202, 200, 185, 1)" stroke-width="1.5"></path><path d="M49.13 549.95L51.83 671.01" stroke="rgba(202, 200, 185, 1)" stroke-width="1.5"></path><path d="M49.13 549.95L-48.14 688.1" stroke="rgba(202, 200, 185, 1)" stroke-width="1.5"></path><path d="M51.83 671.01L51.83 671.01" stroke="rgba(202, 200, 185, 1)" stroke-width="1.5"></path><path d="M51.83 671.01L233.15 526.6" stroke="rgba(202, 200, 185, 1)" stroke-width="1.5"></path><path d="M51.83 671.01L93.53 386.62" stroke="rgba(202, 200, 185, 1)" stroke-width="1.5"></path><path d="M209.76 396.58L209.76 396.58" stroke="rgba(202, 200, 185, 1)" stroke-width="1.5"></path><path d="M209.76 396.58L233.15 526.6" stroke="rgba(202, 200, 185, 1)" stroke-width="1.5"></path><path d="M209.76 396.58L407.54 354.57" stroke="rgba(202, 200, 185, 1)" stroke-width="1.5"></path><path d="M209.76 396.58L349.93 543.44" stroke="rgba(202, 200, 185, 1)" stroke-width="1.5"></path><path d="M209.76 396.58L49.13 549.95" stroke="rgba(202, 200, 185, 1)" stroke-width="1.5"></path><path d="M233.15 526.6L233.15 526.6" stroke="rgba(202, 200, 185, 1)" stroke-width="1.5"></path><path d="M233.15 526.6L349.93 543.44" stroke="rgba(202, 200, 185, 1)" stroke-width="1.5"></path><path d="M233.15 526.6L358.63 648.33" stroke="rgba(202, 200, 185, 1)" stroke-width="1.5"></path><path d="M233.15 526.6L49.13 549.95" stroke="rgba(202, 200, 185, 1)" stroke-width="1.5"></path><path d="M407.54 354.57L407.54 354.57" stroke="rgba(202, 200, 185, 1)" stroke-width="1.5"></path><path d="M407.54 354.57L551.72 343.79" stroke="rgba(202, 200, 185, 1)" stroke-width="1.5"></path><path d="M407.54 354.57L349.93 543.44" stroke="rgba(202, 200, 185, 1)" stroke-width="1.5"></path><path d="M407.54 354.57L536.01 508.55" stroke="rgba(202, 200, 185, 1)" stroke-width="1.5"></path><path d="M349.93 543.44L349.93 543.44" stroke="rgba(202, 200, 185, 1)" stroke-width="1.5"></path><path d="M349.93 543.44L358.63 648.33" stroke="rgba(202, 200, 185, 1)" stroke-width="1.5"></path><path d="M349.93 543.44L536.01 508.55" stroke="rgba(202, 200, 185, 1)" stroke-width="1.5"></path><path d="M349.93 543.44L505.58 662.71" stroke="rgba(202, 200, 185, 1)" stroke-width="1.5"></path><path d="M358.63 648.33L358.63 648.33" stroke="rgba(202, 200, 185, 1)" stroke-width="1.5"></path><path d="M358.63 648.33L505.58 662.71" stroke="rgba(202, 200, 185, 1)" stroke-width="1.5"></path><path d="M358.63 648.33L536.01 508.55" stroke="rgba(202, 200, 185, 1)" stroke-width="1.5"></path><path d="M358.63 648.33L647.92 660.05" stroke="rgba(202, 200, 185, 1)" stroke-width="1.5"></path><path d="M358.63 648.33L209.76 396.58" stroke="rgba(202, 200, 185, 1)" stroke-width="1.5"></path><path d="M551.72 343.79L551.72 343.79" stroke="rgba(202, 200, 185, 1)" stroke-width="1.5"></path><path d="M551.72 343.79L669.15 396.52" stroke="rgba(202, 200, 185, 1)" stroke-width="1.5"></path><path d="M536.01 508.55L536.01 508.55" stroke="rgba(202, 200, 185, 1)" stroke-width="1.5"></path><path d="M536.01 508.55L663.95 530.6" stroke="rgba(202, 200, 185, 1)" stroke-width="1.5"></path><path d="M536.01 508.55L505.58 662.71" stroke="rgba(202, 200, 185, 1)" stroke-width="1.5"></path><path d="M536.01 508.55L551.72 343.79" stroke="rgba(202, 200, 185, 1)" stroke-width="1.5"></path><path d="M536.01 508.55L669.15 396.52" stroke="rgba(202, 200, 185, 1)" stroke-width="1.5"></path><path d="M536.01 508.55L647.92 660.05" stroke="rgba(202, 200, 185, 1)" stroke-width="1.5"></path><path d="M505.58 662.71L505.58 662.71" stroke="rgba(202, 200, 185, 1)" stroke-width="1.5"></path><path d="M505.58 662.71L647.92 660.05" stroke="rgba(202, 200, 185, 1)" stroke-width="1.5"></path><path d="M669.15 396.52L669.15 396.52" stroke="rgba(202, 200, 185, 1)" stroke-width="1.5"></path><path d="M669.15 396.52L663.95 530.6" stroke="rgba(202, 200, 185, 1)" stroke-width="1.5"></path><path d="M669.15 396.52L849.44 351.19" stroke="rgba(202, 200, 185, 1)" stroke-width="1.5"></path><path d="M663.95 530.6L663.95 530.6" stroke="rgba(202, 200, 185, 1)" stroke-width="1.5"></path><path d="M663.95 530.6L647.92 660.05" stroke="rgba(202, 200, 185, 1)" stroke-width="1.5"></path><path d="M663.95 530.6L850.03 519.64" stroke="rgba(202, 200, 185, 1)" stroke-width="1.5"></path><path d="M663.95 530.6L792.13 684.62" stroke="rgba(202, 200, 185, 1)" stroke-width="1.5"></path><path d="M663.95 530.6L505.58 662.71" stroke="rgba(202, 200, 185, 1)" stroke-width="1.5"></path><path d="M647.92 660.05L647.92 660.05" stroke="rgba(202, 200, 185, 1)" stroke-width="1.5"></path><path d="M818.39 192.39L818.39 192.39" stroke="rgba(202, 200, 185, 1)" stroke-width="1.5"></path><path d="M818.39 192.39L966.85 238.76" stroke="rgba(202, 200, 185, 1)" stroke-width="1.5"></path><path d="M818.39 192.39L849.44 351.19" stroke="rgba(202, 200, 185, 1)" stroke-width="1.5"></path><path d="M818.39 192.39L993.46 99.25" stroke="rgba(202, 200, 185, 1)" stroke-width="1.5"></path><path d="M818.39 192.39L963.27 337.86" stroke="rgba(202, 200, 185, 1)" stroke-width="1.5"></path><path d="M818.39 192.39L669.15 396.52" stroke="rgba(202, 200, 185, 1)" stroke-width="1.5"></path><path d="M849.44 351.19L849.44 351.19" stroke="rgba(202, 200, 185, 1)" stroke-width="1.5"></path><path d="M849.44 351.19L963.27 337.86" stroke="rgba(202, 200, 185, 1)" stroke-width="1.5"></path><path d="M850.03 519.64L850.03 519.64" stroke="rgba(202, 200, 185, 1)" stroke-width="1.5"></path><path d="M850.03 519.64L987.38 510.45" stroke="rgba(202, 200, 185, 1)" stroke-width="1.5"></path><path d="M850.03 519.64L849.44 351.19" stroke="rgba(202, 200, 185, 1)" stroke-width="1.5"></path><path d="M792.13 684.62L792.13 684.62" stroke="rgba(202, 200, 185, 1)" stroke-width="1.5"></path><path d="M792.13 684.62L647.92 660.05" stroke="rgba(202, 200, 185, 1)" stroke-width="1.5"></path><path d="M792.13 684.62L850.03 519.64" stroke="rgba(202, 200, 185, 1)" stroke-width="1.5"></path><path d="M792.13 684.62L972.79 648.39" stroke="rgba(202, 200, 185, 1)" stroke-width="1.5"></path><path d="M792.13 684.62L987.38 510.45" stroke="rgba(202, 200, 185, 1)" stroke-width="1.5"></path><path d="M792.13 684.62L505.58 662.71" stroke="rgba(202, 200, 185, 1)" stroke-width="1.5"></path><path d="M959.72 -96.68L959.72 -96.68" stroke="rgba(202, 200, 185, 1)" stroke-width="1.5"></path><path d="M959.72 -96.68L993.46 99.25" stroke="rgba(202, 200, 185, 1)" stroke-width="1.5"></path><path d="M959.72 -96.68L1158.39 -84.24" stroke="rgba(202, 200, 185, 1)" stroke-width="1.5"></path><path d="M993.46 99.25L993.46 99.25" stroke="rgba(202, 200, 185, 1)" stroke-width="1.5"></path><path d="M993.46 99.25L1116.09 50.58" stroke="rgba(202, 200, 185, 1)" stroke-width="1.5"></path><path d="M993.46 99.25L966.85 238.76" stroke="rgba(202, 200, 185, 1)" stroke-width="1.5"></path><path d="M966.85 238.76L966.85 238.76" stroke="rgba(202, 200, 185, 1)" stroke-width="1.5"></path><path d="M966.85 238.76L963.27 337.86" stroke="rgba(202, 200, 185, 1)" stroke-width="1.5"></path><path d="M966.85 238.76L1093.47 258.61" stroke="rgba(202, 200, 185, 1)" stroke-width="1.5"></path><path d="M963.27 337.86L963.27 337.86" stroke="rgba(202, 200, 185, 1)" stroke-width="1.5"></path><path d="M987.38 510.45L987.38 510.45" stroke="rgba(202, 200, 185, 1)" stroke-width="1.5"></path><path d="M987.38 510.45L972.79 648.39" stroke="rgba(202, 200, 185, 1)" stroke-width="1.5"></path><path d="M972.79 648.39L972.79 648.39" stroke="rgba(202, 200, 185, 1)" stroke-width="1.5"></path><path d="M972.79 648.39L1088.27 683.17" stroke="rgba(202, 200, 185, 1)" stroke-width="1.5"></path><path d="M972.79 648.39L850.03 519.64" stroke="rgba(202, 200, 185, 1)" stroke-width="1.5"></path><path d="M972.79 648.39L1142.84 492.93" stroke="rgba(202, 200, 185, 1)" stroke-width="1.5"></path><path d="M972.79 648.39L1278.54 667.86" stroke="rgba(202, 200, 185, 1)" stroke-width="1.5"></path><path d="M1158.39 -84.24L1158.39 -84.24" stroke="rgba(202, 200, 185, 1)" stroke-width="1.5"></path><path d="M1158.39 -84.24L1240.9 -96.63" stroke="rgba(202, 200, 185, 1)" stroke-width="1.5"></path><path d="M1158.39 -84.24L1116.09 50.58" stroke="rgba(202, 200, 185, 1)" stroke-width="1.5"></path><path d="M1116.09 50.58L1116.09 50.58" stroke="rgba(202, 200, 185, 1)" stroke-width="1.5"></path><path d="M1093.47 258.61L1093.47 258.61" stroke="rgba(202, 200, 185, 1)" stroke-width="1.5"></path><path d="M1093.47 258.61L1134.5 349.68" stroke="rgba(202, 200, 185, 1)" stroke-width="1.5"></path><path d="M1093.47 258.61L1237.91 242.69" stroke="rgba(202, 200, 185, 1)" stroke-width="1.5"></path><path d="M1134.5 349.68L1134.5 349.68" stroke="rgba(202, 200, 185, 1)" stroke-width="1.5"></path><path d="M1134.5 349.68L1142.84 492.93" stroke="rgba(202, 200, 185, 1)" stroke-width="1.5"></path><path d="M1134.5 349.68L1237.91 242.69" stroke="rgba(202, 200, 185, 1)" stroke-width="1.5"></path><path d="M1134.5 349.68L1276.52 395.38" stroke="rgba(202, 200, 185, 1)" stroke-width="1.5"></path><path d="M1134.5 349.68L963.27 337.86" stroke="rgba(202, 200, 185, 1)" stroke-width="1.5"></path><path d="M1134.5 349.68L966.85 238.76" stroke="rgba(202, 200, 185, 1)" stroke-width="1.5"></path><path d="M1142.84 492.93L1142.84 492.93" stroke="rgba(202, 200, 185, 1)" stroke-width="1.5"></path><path d="M1142.84 492.93L1255.75 510.76" stroke="rgba(202, 200, 185, 1)" stroke-width="1.5"></path><path d="M1088.27 683.17L1088.27 683.17" stroke="rgba(202, 200, 185, 1)" stroke-width="1.5"></path><path d="M1088.27 683.17L1278.54 667.86" stroke="rgba(202, 200, 185, 1)" stroke-width="1.5"></path><path d="M1088.27 683.17L1142.84 492.93" stroke="rgba(202, 200, 185, 1)" stroke-width="1.5"></path><path d="M1088.27 683.17L987.38 510.45" stroke="rgba(202, 200, 185, 1)" stroke-width="1.5"></path><path d="M1088.27 683.17L1255.75 510.76" stroke="rgba(202, 200, 185, 1)" stroke-width="1.5"></path><path d="M1088.27 683.17L850.03 519.64" stroke="rgba(202, 200, 185, 1)" stroke-width="1.5"></path><path d="M1240.9 -96.63L1240.9 -96.63" stroke="rgba(202, 200, 185, 1)" stroke-width="1.5"></path><path d="M1240.9 -96.63L1263.63 70.01" stroke="rgba(202, 200, 185, 1)" stroke-width="1.5"></path><path d="M1240.9 -96.63L1116.09 50.58" stroke="rgba(202, 200, 185, 1)" stroke-width="1.5"></path><path d="M1240.9 -96.63L1434.33 -106.72" stroke="rgba(202, 200, 185, 1)" stroke-width="1.5"></path><path d="M1240.9 -96.63L1436.47 40.92" stroke="rgba(202, 200, 185, 1)" stroke-width="1.5"></path><path d="M1263.63 70.01L1263.63 70.01" stroke="rgba(202, 200, 185, 1)" stroke-width="1.5"></path><path d="M1263.63 70.01L1116.09 50.58" stroke="rgba(202, 200, 185, 1)" stroke-width="1.5"></path><path d="M1263.63 70.01L1237.91 242.69" stroke="rgba(202, 200, 185, 1)" stroke-width="1.5"></path><path d="M1263.63 70.01L1436.47 40.92" stroke="rgba(202, 200, 185, 1)" stroke-width="1.5"></path><path d="M1237.91 242.69L1237.91 242.69" stroke="rgba(202, 200, 185, 1)" stroke-width="1.5"></path><path d="M1237.91 242.69L1276.52 395.38" stroke="rgba(202, 200, 185, 1)" stroke-width="1.5"></path><path d="M1276.52 395.38L1276.52 395.38" stroke="rgba(202, 200, 185, 1)" stroke-width="1.5"></path><path d="M1276.52 395.38L1255.75 510.76" stroke="rgba(202, 200, 185, 1)" stroke-width="1.5"></path><path d="M1276.52 395.38L1142.84 492.93" stroke="rgba(202, 200, 185, 1)" stroke-width="1.5"></path><path d="M1276.52 395.38L1454.01 392.05" stroke="rgba(202, 200, 185, 1)" stroke-width="1.5"></path><path d="M1276.52 395.38L1433.96 507.22" stroke="rgba(202, 200, 185, 1)" stroke-width="1.5"></path><path d="M1255.75 510.76L1255.75 510.76" stroke="rgba(202, 200, 185, 1)" stroke-width="1.5"></path><path d="M1255.75 510.76L1278.54 667.86" stroke="rgba(202, 200, 185, 1)" stroke-width="1.5"></path><path d="M1255.75 510.76L1433.96 507.22" stroke="rgba(202, 200, 185, 1)" stroke-width="1.5"></path><path d="M1278.54 667.86L1278.54 667.86" stroke="rgba(202, 200, 185, 1)" stroke-width="1.5"></path><path d="M1278.54 667.86L1393.64 685.21" stroke="rgba(202, 200, 185, 1)" stroke-width="1.5"></path><path d="M1434.33 -106.72L1434.33 -106.72" stroke="rgba(202, 200, 185, 1)" stroke-width="1.5"></path><path d="M1434.33 -106.72L1559.88 -71.11" stroke="rgba(202, 200, 185, 1)" stroke-width="1.5"></path><path d="M1434.33 -106.72L1436.47 40.92" stroke="rgba(202, 200, 185, 1)" stroke-width="1.5"></path><path d="M1436.47 40.92L1436.47 40.92" stroke="rgba(202, 200, 185, 1)" stroke-width="1.5"></path><path d="M1436.47 40.92L1546.26 65.05" stroke="rgba(202, 200, 185, 1)" stroke-width="1.5"></path><path d="M1436.47 40.92L1559.88 -71.11" stroke="rgba(202, 200, 185, 1)" stroke-width="1.5"></path><path d="M1436.47 40.92L1441.7 250.45" stroke="rgba(202, 200, 185, 1)" stroke-width="1.5"></path><path d="M1441.7 250.45L1441.7 250.45" stroke="rgba(202, 200, 185, 1)" stroke-width="1.5"></path><path d="M1441.7 250.45L1454.01 392.05" stroke="rgba(202, 200, 185, 1)" stroke-width="1.5"></path><path d="M1441.7 250.45L1585.02 258.13" stroke="rgba(202, 200, 185, 1)" stroke-width="1.5"></path><path d="M1441.7 250.45L1585.56 358.4" stroke="rgba(202, 200, 185, 1)" stroke-width="1.5"></path><path d="M1454.01 392.05L1454.01 392.05" stroke="rgba(202, 200, 185, 1)" stroke-width="1.5"></path><path d="M1454.01 392.05L1433.96 507.22" stroke="rgba(202, 200, 185, 1)" stroke-width="1.5"></path><path d="M1454.01 392.05L1585.56 358.4" stroke="rgba(202, 200, 185, 1)" stroke-width="1.5"></path><path d="M1433.96 507.22L1433.96 507.22" stroke="rgba(202, 200, 185, 1)" stroke-width="1.5"></path><path d="M1433.96 507.22L1601.16 523.31" stroke="rgba(202, 200, 185, 1)" stroke-width="1.5"></path><path d="M1393.64 685.21L1393.64 685.21" stroke="rgba(202, 200, 185, 1)" stroke-width="1.5"></path><path d="M1393.64 685.21L1569.53 667.9" stroke="rgba(202, 200, 185, 1)" stroke-width="1.5"></path><path d="M1393.64 685.21L1433.96 507.22" stroke="rgba(202, 200, 185, 1)" stroke-width="1.5"></path><path d="M1393.64 685.21L1255.75 510.76" stroke="rgba(202, 200, 185, 1)" stroke-width="1.5"></path><path d="M1393.64 685.21L1601.16 523.31" stroke="rgba(202, 200, 185, 1)" stroke-width="1.5"></path><path d="M1393.64 685.21L1454.01 392.05" stroke="rgba(202, 200, 185, 1)" stroke-width="1.5"></path><path d="M1559.88 -71.11L1559.88 -71.11" stroke="rgba(202, 200, 185, 1)" stroke-width="1.5"></path><path d="M1559.88 -71.11L1546.26 65.05" stroke="rgba(202, 200, 185, 1)" stroke-width="1.5"></path><path d="M1546.26 65.05L1546.26 65.05" stroke="rgba(202, 200, 185, 1)" stroke-width="1.5"></path><path d="M1546.26 65.05L1585.02 258.13" stroke="rgba(202, 200, 185, 1)" stroke-width="1.5"></path><path d="M1546.26 65.05L1434.33 -106.72" stroke="rgba(202, 200, 185, 1)" stroke-width="1.5"></path><path d="M1546.26 65.05L1441.7 250.45" stroke="rgba(202, 200, 185, 1)" stroke-width="1.5"></path><path d="M1585.02 258.13L1585.02 258.13" stroke="rgba(202, 200, 185, 1)" stroke-width="1.5"></path><path d="M1585.02 258.13L1585.56 358.4" stroke="rgba(202, 200, 185, 1)" stroke-width="1.5"></path><path d="M1585.02 258.13L1454.01 392.05" stroke="rgba(202, 200, 185, 1)" stroke-width="1.5"></path><path d="M1585.02 258.13L1436.47 40.92" stroke="rgba(202, 200, 185, 1)" stroke-width="1.5"></path><path d="M1585.56 358.4L1585.56 358.4" stroke="rgba(202, 200, 185, 1)" stroke-width="1.5"></path><path d="M1585.56 358.4L1601.16 523.31" stroke="rgba(202, 200, 185, 1)" stroke-width="1.5"></path><path d="M1585.56 358.4L1433.96 507.22" stroke="rgba(202, 200, 185, 1)" stroke-width="1.5"></path><path d="M1585.56 358.4L1546.26 65.05" stroke="rgba(202, 200, 185, 1)" stroke-width="1.5"></path><path d="M1601.16 523.31L1601.16 523.31" stroke="rgba(202, 200, 185, 1)" stroke-width="1.5"></path><path d="M1601.16 523.31L1569.53 667.9" stroke="rgba(202, 200, 185, 1)" stroke-width="1.5"></path><path d="M1601.16 523.31L1454.01 392.05" stroke="rgba(202, 200, 185, 1)" stroke-width="1.5"></path><path d="M1601.16 523.31L1585.02 258.13" stroke="rgba(202, 200, 185, 1)" stroke-width="1.5"></path><path d="M1569.53 667.9L1569.53 667.9" stroke="rgba(202, 200, 185, 1)" stroke-width="1.5"></path><path d="M1569.53 667.9L1433.96 507.22" stroke="rgba(202, 200, 185, 1)" stroke-width="1.5"></path><path d="M1569.53 667.9L1278.54 667.86" stroke="rgba(202, 200, 185, 1)" stroke-width="1.5"></path><path d="M1569.53 667.9L1454.01 392.05" stroke="rgba(202, 200, 185, 1)" stroke-width="1.5"></path><path d="M1569.53 667.9L1585.56 358.4" stroke="rgba(202, 200, 185, 1)" stroke-width="1.5"></path><circle r="5" cx="-78.62" cy="382.44" fill="rgba(202, 200, 185, 1)"></circle><circle r="5" cx="-63.41" cy="491.88" fill="rgba(202, 200, 185, 1)"></circle><circle r="5" cx="-48.14" cy="688.1" fill="rgba(202, 200, 185, 1)"></circle><circle r="5" cx="93.53" cy="386.62" fill="rgba(202, 200, 185, 1)"></circle><circle r="5" cx="49.13" cy="549.95" fill="rgba(202, 200, 185, 1)"></circle><circle r="5" cx="51.83" cy="671.01" fill="rgba(202, 200, 185, 1)"></circle><circle r="5" cx="209.76" cy="396.58" fill="rgba(202, 200, 185, 1)"></circle><circle r="5" cx="233.15" cy="526.6" fill="rgba(202, 200, 185, 1)"></circle><circle r="5" cx="407.54" cy="354.57" fill="rgba(202, 200, 185, 1)"></circle><circle r="5" cx="349.93" cy="543.44" fill="rgba(202, 200, 185, 1)"></circle><circle r="5" cx="358.63" cy="648.33" fill="rgba(202, 200, 185, 1)"></circle><circle r="5" cx="551.72" cy="343.79" fill="rgba(202, 200, 185, 1)"></circle><circle r="5" cx="536.01" cy="508.55" fill="rgba(202, 200, 185, 1)"></circle><circle r="5" cx="505.58" cy="662.71" fill="rgba(202, 200, 185, 1)"></circle><circle r="5" cx="669.15" cy="396.52" fill="rgba(202, 200, 185, 1)"></circle><circle r="5" cx="663.95" cy="530.6" fill="rgba(202, 200, 185, 1)"></circle><circle r="5" cx="647.92" cy="660.05" fill="rgba(202, 200, 185, 1)"></circle><circle r="5" cx="818.39" cy="192.39" fill="rgba(202, 200, 185, 1)"></circle><circle r="5" cx="849.44" cy="351.19" fill="rgba(202, 200, 185, 1)"></circle><circle r="5" cx="850.03" cy="519.64" fill="rgba(202, 200, 185, 1)"></circle><circle r="5" cx="792.13" cy="684.62" fill="rgba(202, 200, 185, 1)"></circle><circle r="5" cx="959.72" cy="-96.68" fill="rgba(202, 200, 185, 1)"></circle><circle r="5" cx="993.46" cy="99.25" fill="rgba(202, 200, 185, 1)"></circle><circle r="5" cx="966.85" cy="238.76" fill="rgba(202, 200, 185, 1)"></circle><circle r="5" cx="963.27" cy="337.86" fill="rgba(202, 200, 185, 1)"></circle><circle r="5" cx="987.38" cy="510.45" fill="rgba(202, 200, 185, 1)"></circle><circle r="5" cx="972.79" cy="648.39" fill="rgba(202, 200, 185, 1)"></circle><circle r="5" cx="1158.39" cy="-84.24" fill="rgba(202, 200, 185, 1)"></circle><circle r="5" cx="1116.09" cy="50.58" fill="rgba(202, 200, 185, 1)"></circle><circle r="5" cx="1093.47" cy="258.61" fill="rgba(202, 200, 185, 1)"></circle><circle r="5" cx="1134.5" cy="349.68" fill="rgba(202, 200, 185, 1)"></circle><circle r="5" cx="1142.84" cy="492.93" fill="rgba(202, 200, 185, 1)"></circle><circle r="5" cx="1088.27" cy="683.17" fill="rgba(202, 200, 185, 1)"></circle><circle r="5" cx="1240.9" cy="-96.63" fill="rgba(202, 200, 185, 1)"></circle><circle r="5" cx="1263.63" cy="70.01" fill="rgba(202, 200, 185, 1)"></circle><circle r="5" cx="1237.91" cy="242.69" fill="rgba(202, 200, 185, 1)"></circle><circle r="5" cx="1276.52" cy="395.38" fill="rgba(202, 200, 185, 1)"></circle><circle r="5" cx="1255.75" cy="510.76" fill="rgba(202, 200, 185, 1)"></circle><circle r="5" cx="1278.54" cy="667.86" fill="rgba(202, 200, 185, 1)"></circle><circle r="5" cx="1434.33" cy="-106.72" fill="rgba(202, 200, 185, 1)"></circle><circle r="5" cx="1436.47" cy="40.92" fill="rgba(202, 200, 185, 1)"></circle><circle r="5" cx="1441.7" cy="250.45" fill="rgba(202, 200, 185, 1)"></circle><circle r="5" cx="1454.01" cy="392.05" fill="rgba(202, 200, 185, 1)"></circle><circle r="5" cx="1433.96" cy="507.22" fill="rgba(202, 200, 185, 1)"></circle><circle r="5" cx="1393.64" cy="685.21" fill="rgba(202, 200, 185, 1)"></circle><circle r="5" cx="1559.88" cy="-71.11" fill="rgba(202, 200, 185, 1)"></circle><circle r="5" cx="1546.26" cy="65.05" fill="rgba(202, 200, 185, 1)"></circle><circle r="5" cx="1585.02" cy="258.13" fill="rgba(202, 200, 185, 1)"></circle><circle r="5" cx="1585.56" cy="358.4" fill="rgba(202, 200, 185, 1)"></circle><circle r="5" cx="1601.16" cy="523.31" fill="rgba(202, 200, 185, 1)"></circle><circle r="5" cx="1569.53" cy="667.9" fill="rgba(202, 200, 185, 1)"></circle><path d="M-43.33 532.77L-43.33 532.77" stroke="hsl(51, 31.2%, 100%)" stroke-width="1.5"></path><path d="M-43.33 532.77L50.36 540.93" stroke="hsl(51, 31.2%, 100%)" stroke-width="1.5"></path><path d="M-43.33 532.77L-78.05 663.98" stroke="hsl(51, 31.2%, 100%)" stroke-width="1.5"></path><path d="M-78.05 663.98L-78.05 663.98" stroke="hsl(51, 31.2%, 100%)" stroke-width="1.5"></path><path d="M-78.05 663.98L84.61 661.8" stroke="hsl(51, 31.2%, 100%)" stroke-width="1.5"></path><path d="M50.36 540.93L50.36 540.93" stroke="hsl(51, 31.2%, 100%)" stroke-width="1.5"></path><path d="M50.36 540.93L84.61 661.8" stroke="hsl(51, 31.2%, 100%)" stroke-width="1.5"></path><path d="M244.48 701.47L244.48 701.47" stroke="hsl(51, 31.2%, 100%)" stroke-width="1.5"></path><path d="M244.48 701.47L398.75 701.97" stroke="hsl(51, 31.2%, 100%)" stroke-width="1.5"></path><path d="M244.48 701.47L84.61 661.8" stroke="hsl(51, 31.2%, 100%)" stroke-width="1.5"></path><path d="M244.48 701.47L254.59 511.85" stroke="hsl(51, 31.2%, 100%)" stroke-width="1.5"></path><path d="M244.48 701.47L387.31 532.34" stroke="hsl(51, 31.2%, 100%)" stroke-width="1.5"></path><path d="M244.48 701.47L50.36 540.93" stroke="hsl(51, 31.2%, 100%)" stroke-width="1.5"></path><path d="M518.37 650.6L518.37 650.6" stroke="hsl(51, 31.2%, 100%)" stroke-width="1.5"></path><path d="M518.37 650.6L524.97 547.19" stroke="hsl(51, 31.2%, 100%)" stroke-width="1.5"></path><path d="M518.37 650.6L398.75 701.97" stroke="hsl(51, 31.2%, 100%)" stroke-width="1.5"></path><path d="M667.27 401.53L667.27 401.53" stroke="hsl(51, 31.2%, 100%)" stroke-width="1.5"></path><path d="M667.27 401.53L687.91 530.46" stroke="hsl(51, 31.2%, 100%)" stroke-width="1.5"></path><path d="M667.27 401.53L535.24 410.59" stroke="hsl(51, 31.2%, 100%)" stroke-width="1.5"></path><path d="M667.27 401.53L849.55 342.71" stroke="hsl(51, 31.2%, 100%)" stroke-width="1.5"></path><path d="M830.8 519.59L830.8 519.59" stroke="hsl(51, 31.2%, 100%)" stroke-width="1.5"></path><path d="M830.8 519.59L815.48 646.1" stroke="hsl(51, 31.2%, 100%)" stroke-width="1.5"></path><path d="M830.8 519.59L687.91 530.46" stroke="hsl(51, 31.2%, 100%)" stroke-width="1.5"></path><path d="M830.8 519.59L953.28 399.13" stroke="hsl(51, 31.2%, 100%)" stroke-width="1.5"></path><path d="M830.8 519.59L849.55 342.71" stroke="hsl(51, 31.2%, 100%)" stroke-width="1.5"></path><path d="M830.8 519.59L667.27 401.53" stroke="hsl(51, 31.2%, 100%)" stroke-width="1.5"></path><path d="M1264.58 110.04L1264.58 110.04" stroke="hsl(51, 31.2%, 100%)" stroke-width="1.5"></path><path d="M1264.58 110.04L1397.83 82.8" stroke="hsl(51, 31.2%, 100%)" stroke-width="1.5"></path><path d="M1264.58 110.04L1402.14 230.46" stroke="hsl(51, 31.2%, 100%)" stroke-width="1.5"></path><path d="M1264.58 110.04L1133.02 243.19" stroke="hsl(51, 31.2%, 100%)" stroke-width="1.5"></path><path d="M1264.58 110.04L1263.86 -82.87" stroke="hsl(51, 31.2%, 100%)" stroke-width="1.5"></path><path d="M1264.58 110.04L1293.95 347.15" stroke="hsl(51, 31.2%, 100%)" stroke-width="1.5"></path><path d="M1296.97 506.5L1296.97 506.5" stroke="hsl(51, 31.2%, 100%)" stroke-width="1.5"></path><path d="M1296.97 506.5L1419.61 543.6" stroke="hsl(51, 31.2%, 100%)" stroke-width="1.5"></path><path d="M1296.97 506.5L1312.15 653.32" stroke="hsl(51, 31.2%, 100%)" stroke-width="1.5"></path><path d="M1296.97 506.5L1293.95 347.15" stroke="hsl(51, 31.2%, 100%)" stroke-width="1.5"></path><path d="M1296.97 506.5L1129.05 494.33" stroke="hsl(51, 31.2%, 100%)" stroke-width="1.5"></path><path d="M1296.97 506.5L1433.44 397.28" stroke="hsl(51, 31.2%, 100%)" stroke-width="1.5"></path><path d="M1296.97 506.5L1388.04 663.24" stroke="hsl(51, 31.2%, 100%)" stroke-width="1.5"></path><path d="M1402.14 230.46L1402.14 230.46" stroke="hsl(51, 31.2%, 100%)" stroke-width="1.5"></path><path d="M1402.14 230.46L1545.24 245.71" stroke="hsl(51, 31.2%, 100%)" stroke-width="1.5"></path><path d="M1402.14 230.46L1397.83 82.8" stroke="hsl(51, 31.2%, 100%)" stroke-width="1.5"></path><path d="M1402.14 230.46L1293.95 347.15" stroke="hsl(51, 31.2%, 100%)" stroke-width="1.5"></path><path d="M1402.14 230.46L1433.44 397.28" stroke="hsl(51, 31.2%, 100%)" stroke-width="1.5"></path><path d="M1433.44 397.28L1433.44 397.28" stroke="hsl(51, 31.2%, 100%)" stroke-width="1.5"></path><path d="M1433.44 397.28L1576.09 366.52" stroke="hsl(51, 31.2%, 100%)" stroke-width="1.5"></path><path d="M1433.44 397.28L1419.61 543.6" stroke="hsl(51, 31.2%, 100%)" stroke-width="1.5"></path><path d="M1388.04 663.24L1388.04 663.24" stroke="hsl(51, 31.2%, 100%)" stroke-width="1.5"></path><path d="M1388.04 663.24L1312.15 653.32" stroke="hsl(51, 31.2%, 100%)" stroke-width="1.5"></path><path d="M1388.04 663.24L1419.61 543.6" stroke="hsl(51, 31.2%, 100%)" stroke-width="1.5"></path><path d="M1388.04 663.24L1552.9 674.73" stroke="hsl(51, 31.2%, 100%)" stroke-width="1.5"></path><path d="M1388.04 663.24L1559.42 521.88" stroke="hsl(51, 31.2%, 100%)" stroke-width="1.5"></path><path d="M1388.04 663.24L1433.44 397.28" stroke="hsl(51, 31.2%, 100%)" stroke-width="1.5"></path><path d="M1552.9 674.73L1552.9 674.73" stroke="hsl(51, 31.2%, 100%)" stroke-width="1.5"></path><path d="M1552.9 674.73L1559.42 521.88" stroke="hsl(51, 31.2%, 100%)" stroke-width="1.5"></path><path d="M84.61 661.8L84.61 661.8" stroke="hsl(51, 31.2%, 100%)" stroke-width="1.5"></path><path d="M254.59 511.85L254.59 511.85" stroke="hsl(51, 31.2%, 100%)" stroke-width="1.5"></path><path d="M254.59 511.85L387.31 532.34" stroke="hsl(51, 31.2%, 100%)" stroke-width="1.5"></path><path d="M254.59 511.85L50.36 540.93" stroke="hsl(51, 31.2%, 100%)" stroke-width="1.5"></path><path d="M387.31 532.34L387.31 532.34" stroke="hsl(51, 31.2%, 100%)" stroke-width="1.5"></path><path d="M387.31 532.34L524.97 547.19" stroke="hsl(51, 31.2%, 100%)" stroke-width="1.5"></path><path d="M387.31 532.34L398.75 701.97" stroke="hsl(51, 31.2%, 100%)" stroke-width="1.5"></path><path d="M398.75 701.97L398.75 701.97" stroke="hsl(51, 31.2%, 100%)" stroke-width="1.5"></path><path d="M535.24 410.59L535.24 410.59" stroke="hsl(51, 31.2%, 100%)" stroke-width="1.5"></path><path d="M535.24 410.59L524.97 547.19" stroke="hsl(51, 31.2%, 100%)" stroke-width="1.5"></path><path d="M535.24 410.59L387.31 532.34" stroke="hsl(51, 31.2%, 100%)" stroke-width="1.5"></path><path d="M535.24 410.59L687.91 530.46" stroke="hsl(51, 31.2%, 100%)" stroke-width="1.5"></path><path d="M524.97 547.19L524.97 547.19" stroke="hsl(51, 31.2%, 100%)" stroke-width="1.5"></path><path d="M687.91 530.46L687.91 530.46" stroke="hsl(51, 31.2%, 100%)" stroke-width="1.5"></path><path d="M687.91 530.46L693.43 681.19" stroke="hsl(51, 31.2%, 100%)" stroke-width="1.5"></path><path d="M693.43 681.19L693.43 681.19" stroke="hsl(51, 31.2%, 100%)" stroke-width="1.5"></path><path d="M693.43 681.19L815.48 646.1" stroke="hsl(51, 31.2%, 100%)" stroke-width="1.5"></path><path d="M849.55 342.71L849.55 342.71" stroke="hsl(51, 31.2%, 100%)" stroke-width="1.5"></path><path d="M849.55 342.71L953.28 399.13" stroke="hsl(51, 31.2%, 100%)" stroke-width="1.5"></path><path d="M815.48 646.1L815.48 646.1" stroke="hsl(51, 31.2%, 100%)" stroke-width="1.5"></path><path d="M953.28 399.13L953.28 399.13" stroke="hsl(51, 31.2%, 100%)" stroke-width="1.5"></path><path d="M953.28 399.13L1115.02 342.25" stroke="hsl(51, 31.2%, 100%)" stroke-width="1.5"></path><path d="M966.83 711.05L966.83 711.05" stroke="hsl(51, 31.2%, 100%)" stroke-width="1.5"></path><path d="M966.83 711.05L1103.82 680.6" stroke="hsl(51, 31.2%, 100%)" stroke-width="1.5"></path><path d="M966.83 711.05L815.48 646.1" stroke="hsl(51, 31.2%, 100%)" stroke-width="1.5"></path><path d="M966.83 711.05L830.8 519.59" stroke="hsl(51, 31.2%, 100%)" stroke-width="1.5"></path><path d="M966.83 711.05L1129.05 494.33" stroke="hsl(51, 31.2%, 100%)" stroke-width="1.5"></path><path d="M966.83 711.05L693.43 681.19" stroke="hsl(51, 31.2%, 100%)" stroke-width="1.5"></path><path d="M966.83 711.05L953.28 399.13" stroke="hsl(51, 31.2%, 100%)" stroke-width="1.5"></path><path d="M1133.02 243.19L1133.02 243.19" stroke="hsl(51, 31.2%, 100%)" stroke-width="1.5"></path><path d="M1133.02 243.19L1115.02 342.25" stroke="hsl(51, 31.2%, 100%)" stroke-width="1.5"></path><path d="M1133.02 243.19L1293.95 347.15" stroke="hsl(51, 31.2%, 100%)" stroke-width="1.5"></path><path d="M1133.02 243.19L953.28 399.13" stroke="hsl(51, 31.2%, 100%)" stroke-width="1.5"></path><path d="M1115.02 342.25L1115.02 342.25" stroke="hsl(51, 31.2%, 100%)" stroke-width="1.5"></path><path d="M1115.02 342.25L1129.05 494.33" stroke="hsl(51, 31.2%, 100%)" stroke-width="1.5"></path><path d="M1129.05 494.33L1129.05 494.33" stroke="hsl(51, 31.2%, 100%)" stroke-width="1.5"></path><path d="M1129.05 494.33L1103.82 680.6" stroke="hsl(51, 31.2%, 100%)" stroke-width="1.5"></path><path d="M1129.05 494.33L953.28 399.13" stroke="hsl(51, 31.2%, 100%)" stroke-width="1.5"></path><path d="M1103.82 680.6L1103.82 680.6" stroke="hsl(51, 31.2%, 100%)" stroke-width="1.5"></path><path d="M1263.86 -82.87L1263.86 -82.87" stroke="hsl(51, 31.2%, 100%)" stroke-width="1.5"></path><path d="M1263.86 -82.87L1421.06 -97.62" stroke="hsl(51, 31.2%, 100%)" stroke-width="1.5"></path><path d="M1293.95 347.15L1293.95 347.15" stroke="hsl(51, 31.2%, 100%)" stroke-width="1.5"></path><path d="M1293.95 347.15L1433.44 397.28" stroke="hsl(51, 31.2%, 100%)" stroke-width="1.5"></path><path d="M1312.15 653.32L1312.15 653.32" stroke="hsl(51, 31.2%, 100%)" stroke-width="1.5"></path><path d="M1312.15 653.32L1419.61 543.6" stroke="hsl(51, 31.2%, 100%)" stroke-width="1.5"></path><path d="M1421.06 -97.62L1421.06 -97.62" stroke="hsl(51, 31.2%, 100%)" stroke-width="1.5"></path><path d="M1421.06 -97.62L1547.55 -42.67" stroke="hsl(51, 31.2%, 100%)" stroke-width="1.5"></path><path d="M1421.06 -97.62L1397.83 82.8" stroke="hsl(51, 31.2%, 100%)" stroke-width="1.5"></path><path d="M1421.06 -97.62L1578.27 75.27" stroke="hsl(51, 31.2%, 100%)" stroke-width="1.5"></path><path d="M1421.06 -97.62L1264.58 110.04" stroke="hsl(51, 31.2%, 100%)" stroke-width="1.5"></path><path d="M1397.83 82.8L1397.83 82.8" stroke="hsl(51, 31.2%, 100%)" stroke-width="1.5"></path><path d="M1419.61 543.6L1419.61 543.6" stroke="hsl(51, 31.2%, 100%)" stroke-width="1.5"></path><path d="M1547.55 -42.67L1547.55 -42.67" stroke="hsl(51, 31.2%, 100%)" stroke-width="1.5"></path><path d="M1547.55 -42.67L1578.27 75.27" stroke="hsl(51, 31.2%, 100%)" stroke-width="1.5"></path><path d="M1547.55 -42.67L1397.83 82.8" stroke="hsl(51, 31.2%, 100%)" stroke-width="1.5"></path><path d="M1578.27 75.27L1578.27 75.27" stroke="hsl(51, 31.2%, 100%)" stroke-width="1.5"></path><path d="M1545.24 245.71L1545.24 245.71" stroke="hsl(51, 31.2%, 100%)" stroke-width="1.5"></path><path d="M1545.24 245.71L1576.09 366.52" stroke="hsl(51, 31.2%, 100%)" stroke-width="1.5"></path><path d="M1545.24 245.71L1578.27 75.27" stroke="hsl(51, 31.2%, 100%)" stroke-width="1.5"></path><path d="M1545.24 245.71L1433.44 397.28" stroke="hsl(51, 31.2%, 100%)" stroke-width="1.5"></path><path d="M1545.24 245.71L1397.83 82.8" stroke="hsl(51, 31.2%, 100%)" stroke-width="1.5"></path><path d="M1545.24 245.71L1293.95 347.15" stroke="hsl(51, 31.2%, 100%)" stroke-width="1.5"></path><path d="M1576.09 366.52L1576.09 366.52" stroke="hsl(51, 31.2%, 100%)" stroke-width="1.5"></path><path d="M1576.09 366.52L1559.42 521.88" stroke="hsl(51, 31.2%, 100%)" stroke-width="1.5"></path><path d="M1576.09 366.52L1402.14 230.46" stroke="hsl(51, 31.2%, 100%)" stroke-width="1.5"></path><path d="M1576.09 366.52L1419.61 543.6" stroke="hsl(51, 31.2%, 100%)" stroke-width="1.5"></path><path d="M1559.42 521.88L1559.42 521.88" stroke="hsl(51, 31.2%, 100%)" stroke-width="1.5"></path><path d="M1559.42 521.88L1419.61 543.6" stroke="hsl(51, 31.2%, 100%)" stroke-width="1.5"></path><circle r="25" cx="-43.33" cy="532.77" fill="url(#SvgjsRadialGradient1017)"></circle><circle r="25" cx="-78.05" cy="663.98" fill="url(#SvgjsRadialGradient1017)"></circle><circle r="25" cx="50.36" cy="540.93" fill="url(#SvgjsRadialGradient1017)"></circle><circle r="25" cx="244.48" cy="701.47" fill="url(#SvgjsRadialGradient1017)"></circle><circle r="25" cx="518.37" cy="650.6" fill="url(#SvgjsRadialGradient1017)"></circle><circle r="25" cx="667.27" cy="401.53" fill="url(#SvgjsRadialGradient1017)"></circle><circle r="25" cx="830.8" cy="519.59" fill="url(#SvgjsRadialGradient1017)"></circle><circle r="25" cx="1264.58" cy="110.04" fill="url(#SvgjsRadialGradient1017)"></circle><circle r="25" cx="1296.97" cy="506.5" fill="url(#SvgjsRadialGradient1017)"></circle><circle r="25" cx="1402.14" cy="230.46" fill="url(#SvgjsRadialGradient1017)"></circle><circle r="25" cx="1433.44" cy="397.28" fill="url(#SvgjsRadialGradient1017)"></circle><circle r="25" cx="1388.04" cy="663.24" fill="url(#SvgjsRadialGradient1017)"></circle><circle r="25" cx="1552.9" cy="674.73" fill="url(#SvgjsRadialGradient1017)"></circle><circle r="5" cx="84.61" cy="661.8" fill="#f4f3ea"></circle><circle r="5" cx="254.59" cy="511.85" fill="#f4f3ea"></circle><circle r="5" cx="387.31" cy="532.34" fill="#f4f3ea"></circle><circle r="5" cx="398.75" cy="701.97" fill="#f4f3ea"></circle><circle r="5" cx="535.24" cy="410.59" fill="#f4f3ea"></circle><circle r="5" cx="524.97" cy="547.19" fill="#f4f3ea"></circle><circle r="5" cx="687.91" cy="530.46" fill="#f4f3ea"></circle><circle r="5" cx="693.43" cy="681.19" fill="#f4f3ea"></circle><circle r="5" cx="849.55" cy="342.71" fill="#f4f3ea"></circle><circle r="5" cx="815.48" cy="646.1" fill="#f4f3ea"></circle><circle r="5" cx="953.28" cy="399.13" fill="#f4f3ea"></circle><circle r="5" cx="966.83" cy="711.05" fill="#f4f3ea"></circle><circle r="5" cx="1133.02" cy="243.19" fill="#f4f3ea"></circle><circle r="5" cx="1115.02" cy="342.25" fill="#f4f3ea"></circle><circle r="5" cx="1129.05" cy="494.33" fill="#f4f3ea"></circle><circle r="5" cx="1103.82" cy="680.6" fill="#f4f3ea"></circle><circle r="5" cx="1263.86" cy="-82.87" fill="#f4f3ea"></circle><circle r="5" cx="1293.95" cy="347.15" fill="#f4f3ea"></circle><circle r="5" cx="1312.15" cy="653.32" fill="#f4f3ea"></circle><circle r="5" cx="1421.06" cy="-97.62" fill="#f4f3ea"></circle><circle r="5" cx="1397.83" cy="82.8" fill="#f4f3ea"></circle><circle r="5" cx="1419.61" cy="543.6" fill="#f4f3ea"></circle><circle r="5" cx="1547.55" cy="-42.67" fill="#f4f3ea"></circle><circle r="5" cx="1578.27" cy="75.27" fill="#f4f3ea"></circle><circle r="5" cx="1545.24" cy="245.71" fill="#f4f3ea"></circle><circle r="5" cx="1576.09" cy="366.52" fill="#f4f3ea"></circle><circle r="5" cx="1559.42" cy="521.88" fill="#f4f3ea"></circle></g><defs><mask id="SvgjsMask1016"><rect width="1440" height="560" fill="#ffffff"></rect></mask><radialGradient id="SvgjsRadialGradient1017"><stop stop-color="#ffffff" offset="0.1"></stop><stop stop-color="rgba(233, 230, 213, 1)" offset="0.2"></stop><stop stop-color="rgba(233, 230, 213, 0)" offset="1"></stop></radialGradient></defs></svg>